Coordinates
version=1
nRows=16
nColumns=63
inDegrees=yes

Units are S.I. units (second, meters, Newtons, ...)
If the header above contains a line with 'inDegrees', this indicates whether rotational values are in degrees (yes) or radians (no).

endheader
time	pelvis_tilt	pelvis_list	pelvis_rotation	pelvis_tx	pelvis_ty	pelvis_tz	hip_flexion_r	hip_adduction_r	hip_rotation_r	knee_angle_r	knee_angle_r_beta	ankle_angle_r	subtalar_angle_r	mtp_angle_r	hip_flexion_l	hip_adduction_l	hip_rotation_l	knee_angle_l	knee_angle_l_beta	ankle_angle_l	subtalar_angle_l	mtp_angle_l	L5_S1_Flex_Ext	L5_S1_Lat_Bending	L5_S1_axial_rotation	L4_L5_Flex_Ext	L4_L5_Lat_Bending	L4_L5_axial_rotation	L3_L4_Flex_Ext	L3_L4_Lat_Bending	L3_L4_axial_rotation	L2_L3_Flex_Ext	L2_L3_Lat_Bending	L2_L3_axial_rotation	L1_L2_Flex_Ext	L1_L2_Lat_Bending	L1_L2_axial_rotation	L1_T12_Flex_Ext	L1_T12_Lat_Bending	L1_T12_axial_rotation	Abs_r3	Abs_r2	Abs_r1	Abs_t1	Abs_t2	neck_flexion	neck_bending	neck_rotation	arm_flex_r	arm_add_r	arm_rot_r	elbow_flex_r	pro_sup_r	wrist_flex_r	wrist_dev_r	arm_flex_l	arm_add_l	arm_rot_l	elbow_flex_l	pro_sup_l	wrist_flex_l	wrist_dev_l
1.483333	-0.760014	-3.265013	84.055901	0.262875	0.976415	0.536000	3.447984	-1.415371	2.006648	17.018765	0.297033	30.893824	-4.826689	0.000000	-2.407704	2.610312	8.098223	4.470544	0.078026	30.044877	-14.043082	0.000000	0.087362	-0.112436	0.371717	0.162239	-0.149540	0.394950	0.143526	-0.273377	0.394950	0.099846	-0.273377	0.325253	0.081124	-0.229280	0.302020	0.049918	-0.174164	0.278788	0.624016	-1.271901	2.067381	0.000000	0.000000	8.562866	4.842494	1.365803	38.378597	-11.310536	34.652122	149.833365	89.014403	-6.043727	-3.647266	37.988999	-3.738979	28.915445	143.851648	87.751650	-12.932390	-1.035249
1.500000	-0.804761	-3.092673	83.826703	0.264255	0.976232	0.534960	3.128823	-1.386607	2.366757	16.875598	0.294535	30.863705	-5.021369	0.000000	-2.654505	2.634886	8.151642	4.442224	0.077531	30.138672	-14.354524	0.000000	0.094763	-0.116232	0.397972	0.175984	-0.154589	0.422846	0.155686	-0.282607	0.422846	0.108304	-0.282607	0.348226	0.087997	-0.237021	0.323352	0.054147	-0.180044	0.298479	0.676880	-1.314844	2.213402	0.000000	0.000000	8.430867	4.234831	0.525261	38.644478	-11.472923	34.174232	149.810481	89.029788	-4.751010	-3.788783	38.184992	-3.652324	28.376138	143.425093	87.764465	-12.004875	0.155251
1.516667	-0.864629	-2.905776	83.504838	0.265776	0.976122	0.533935	2.797375	-1.371920	2.822832	16.731457	0.292019	30.759765	-5.235253	0.000000	-2.893323	2.681127	7.978979	4.472607	0.078062	30.266479	-14.526737	0.000000	0.101950	-0.119341	0.432781	0.189331	-0.158724	0.459830	0.167493	-0.290166	0.459830	0.116518	-0.290166	0.378684	0.094670	-0.243360	0.351635	0.058254	-0.184859	0.324586	0.728216	-1.350011	2.406999	0.000000	0.000000	8.157114	3.620761	-0.081457	38.919323	-11.483926	34.024453	149.803878	89.040601	-3.854388	-3.828443	38.369506	-3.744358	27.934408	143.157452	87.753471	-11.101964	0.915887
1.533333	-0.960435	-2.701116	83.181512	0.267389	0.976094	0.532939	2.444435	-1.390511	3.298727	16.586142	0.289483	30.601845	-5.496309	0.000000	-3.119199	2.766243	7.685269	4.558935	0.079568	30.413883	-14.587255	0.000000	0.107614	-0.128175	0.463392	0.199850	-0.170473	0.492354	0.176799	-0.311646	0.492354	0.122992	-0.311646	0.405468	0.099930	-0.261375	0.376506	0.061491	-0.198544	0.347544	0.768675	-1.449946	2.577247	0.000000	0.000000	7.742356	3.049462	-0.627334	39.157693	-11.351259	34.112236	149.801162	89.055438	-3.100686	-3.912013	38.585966	-3.991033	27.629878	143.039685	87.759478	-10.284079	1.299366
1.550000	-1.090086	-2.488447	82.871890	0.269075	0.976164	0.531942	2.073405	-1.446623	3.729069	16.425246	0.286675	30.410803	-5.726952	0.000000	-3.318732	2.877729	7.165468	4.709903	0.082203	30.622214	-14.377486	0.000000	0.112657	-0.143206	0.489524	0.209216	-0.190464	0.520119	0.185085	-0.348191	0.520119	0.128756	-0.348191	0.428333	0.104614	-0.292025	0.397738	0.064372	-0.221826	0.367143	0.804700	-1.619974	2.722584	0.000000	0.000000	7.190944	2.511003	-1.144923	39.352138	-11.112530	34.312344	149.799232	89.055235	-2.263741	-3.967089	38.802763	-4.308583	27.318165	143.096727	87.753380	-9.181727	1.669805
1.566667	-1.237667	-2.272311	82.557827	0.270826	0.976337	0.530917	1.698212	-1.525847	4.141214	16.264963	0.283877	30.198406	-5.929730	0.000000	-3.505216	3.010488	6.533054	4.888233	0.085316	30.844721	-14.079972	0.000000	0.117691	-0.163014	0.521368	0.218564	-0.216808	0.553953	0.193355	-0.396352	0.553953	0.134509	-0.396352	0.456197	0.109288	-0.332418	0.423611	0.067249	-0.252508	0.391026	0.840657	-1.844044	2.899692	0.000000	0.000000	6.515243	2.007931	-1.703660	39.521689	-10.864557	34.547846	149.796659	89.032491	-1.446401	-3.994492	39.018391	-4.619882	26.957260	143.226214	87.733277	-7.625206	1.915375
1.583333	-1.407060	-2.059076	82.275991	0.272627	0.976612	0.529870	1.325792	-1.631417	4.476354	16.104847	0.281083	29.987499	-6.072018	0.000000	-3.663218	3.150340	5.678586	5.105870	0.089114	31.133937	-13.485469	0.000000	0.122926	-0.190025	0.556746	0.228286	-0.252733	0.591542	0.201956	-0.462026	0.591542	0.140492	-0.462026	0.487153	0.114149	-0.387498	0.452356	0.070240	-0.294348	0.417559	0.878050	-2.149597	3.096453	0.000000	0.000000	5.745080	1.578097	-2.410827	39.641250	-10.649962	34.724618	149.793085	88.988106	-0.613336	-4.024657	39.272801	-4.930782	26.665976	143.392433	87.706448	-6.054667	2.139200
1.600000	-1.595815	-1.853730	82.023238	0.274466	0.976979	0.528772	0.953125	-1.754027	4.789860	15.922539	0.277901	29.770179	-6.216806	0.000000	-3.807783	3.306094	4.840206	5.324470	0.092930	31.408329	-12.906492	0.000000	0.129418	-0.223729	0.596727	0.240343	-0.297559	0.634023	0.212621	-0.543974	0.634023	0.147912	-0.543974	0.522137	0.120178	-0.456227	0.484841	0.073950	-0.346556	0.447546	0.924421	-2.530863	3.318819	0.000000	0.000000	4.918305	1.208735	-3.267860	39.670152	-10.470875	34.733608	149.789229	88.932516	0.428245	-4.094075	39.502536	-5.138004	26.032060	143.557176	87.600978	-3.285357	2.724992
1.616667	-1.794706	-1.648950	81.817782	0.276325	0.977424	0.527667	0.583716	-1.889828	5.030250	15.738411	0.274687	29.580761	-6.314311	0.000000	-3.936159	3.454124	3.848264	5.569800	0.097211	31.727860	-12.070960	0.000000	0.134828	-0.261363	0.630488	0.250389	-0.347613	0.669894	0.221508	-0.635479	0.669894	0.154095	-0.635479	0.551677	0.125201	-0.532972	0.512272	0.077041	-0.404852	0.472866	0.963061	-2.956595	3.506588	0.000000	0.000000	4.087376	0.917977	-4.118644	39.659504	-10.312237	34.671830	149.785482	88.879254	1.492217	-4.206929	39.764683	-5.416851	25.646353	143.703799	87.512634	-1.335092	2.989377
1.633333	-1.985231	-1.448307	81.660245	0.278183	0.977920	0.526539	0.214457	-2.011436	5.253178	15.541366	0.271248	29.405369	-6.432415	0.000000	-4.056012	3.577458	2.825097	5.835339	0.101846	32.057512	-11.130442	0.000000	0.139797	-0.298110	0.648264	0.259618	-0.396486	0.688781	0.229673	-0.724825	0.688781	0.159774	-0.724825	0.567231	0.129816	-0.607906	0.526715	0.079880	-0.461772	0.486198	0.998558	-3.372279	3.605452	0.000000	0.000000	3.296014	0.698466	-4.780252	39.634117	-10.125893	34.556344	149.782749	88.832650	2.667157	-4.287400	39.971726	-5.761423	25.317169	143.852874	87.442240	0.139352	3.023818
1.650000	-2.187727	-1.242082	81.529664	0.280078	0.978454	0.525442	-0.142858	-2.147560	5.442125	15.360068	0.268084	29.290723	-6.503129	0.000000	-4.182422	3.700886	1.749061	6.107719	0.106600	32.374412	-10.073337	0.000000	0.143112	-0.337565	0.649904	0.265773	-0.448962	0.690523	0.235118	-0.820756	0.690523	0.163562	-0.820756	0.568666	0.132894	-0.688363	0.528047	0.081774	-0.522889	0.487428	1.022233	-3.818606	3.614571	0.000000	0.000000	2.594276	0.580438	-5.320988	39.585073	-9.912803	34.433118	149.783558	88.802431	3.825862	-4.434183	40.168691	-6.208738	25.121901	143.997813	87.387498	0.900295	2.783837
1.666667	-2.352366	-1.037172	81.449329	0.281908	0.979004	0.524361	-0.502223	-2.245101	5.583153	15.170104	0.264768	29.214634	-6.537235	0.000000	-4.304903	3.770361	0.669885	6.419670	0.112044	32.697360	-8.937236	0.000000	0.144167	-0.369692	0.620032	0.267732	-0.491691	0.658784	0.236852	-0.898870	0.658784	0.164768	-0.898870	0.542528	0.133873	-0.753876	0.503776	0.082377	-0.572653	0.465024	1.029770	-4.182033	3.448431	0.000000	0.000000	2.028542	0.490469	-5.494073	39.575003	-9.651574	34.366764	149.785904	88.788619	5.001072	-4.568713	40.285089	-6.754446	24.962967	144.195754	87.353604	0.990636	2.272520
1.683333	-2.488857	-0.830767	81.393579	0.283674	0.979549	0.523295	-0.854531	-2.310866	5.744488	14.991613	0.261653	29.183471	-6.604132	0.000000	-4.444401	3.809353	-0.317960	6.734999	0.117548	32.973939	-7.888680	0.000000	0.143426	-0.396051	0.562949	0.266356	-0.526748	0.598133	0.235634	-0.962959	0.598133	0.163921	-0.962959	0.492580	0.133185	-0.807628	0.457396	0.081953	-0.613483	0.422212	1.024474	-4.480210	3.130953	0.000000	0.000000	1.599067	0.455189	-5.360974	39.582815	-9.354638	34.321013	149.791312	88.790945	6.239975	-4.675518	40.321984	-7.350854	24.842810	144.509274	87.358216	0.367363	1.868740
1.700000	-2.578826	-0.640720	81.393915	0.285290	0.980067	0.522250	-1.188177	-2.329966	5.849957	14.822711	0.258705	29.196941	-6.648033	0.000000	-4.573084	3.788437	-1.256854	7.075664	0.123494	33.232596	-6.838667	0.000000	0.143149	-0.413342	0.471475	0.265842	-0.549745	0.500942	0.235180	-1.005001	0.500942	0.163605	-1.005001	0.412540	0.132928	-0.842888	0.383073	0.081795	-0.640267	0.353606	1.022500	-4.675811	2.622200	0.000000	0.000000	1.329565	0.476151	-4.847156	39.608392	-9.052889	34.300895	149.797124	88.811803	7.430801	-4.729276	40.235906	-7.977404	24.587967	144.869502	87.367036	-0.439423	1.379935
1.716667	-2.602985	-0.459870	81.431638	0.286732	0.980579	0.521166	-1.525992	-2.288083	5.919360	14.644243	0.255590	29.247098	-6.653648	0.000000	-4.712075	3.696765	-2.152771	7.425589	0.129601	33.466783	-5.818008	0.000000	0.143106	-0.418843	0.352098	0.265763	-0.557061	0.374104	0.235110	-1.018375	0.374104	0.163556	-1.018375	0.308086	0.132889	-0.854105	0.286080	0.081771	-0.648788	0.264074	1.022195	-4.738038	1.958264	0.000000	0.000000	1.169446	0.438930	-4.076950	39.651540	-8.778175	34.248489	149.803769	88.829280	8.573278	-4.575685	40.015483	-8.609431	24.230779	145.294711	87.382994	-1.496471	1.063956
1.733333	-2.577671	-0.300882	81.527971	0.287950	0.981070	0.520077	-1.853220	-2.201297	5.923609	14.457851	0.252337	29.322953	-6.627156	0.000000	-4.838660	3.550946	-2.953506	7.784597	0.135867	33.669409	-4.872354	0.000000	0.144679	-0.415039	0.207532	0.268683	-0.552002	0.220503	0.237693	-1.009126	0.220503	0.165353	-1.009126	0.181591	0.134349	-0.846348	0.168620	0.082669	-0.642896	0.155649	1.033425	-4.695006	1.154233	0.000000	0.000000	1.113285	0.411818	-3.078288	39.677345	-8.555766	34.139166	149.805864	88.847895	9.557758	-4.275767	39.697009	-9.237310	23.804513	145.720669	87.390606	-2.763270	0.839743
